<svg id="Layer_1" data-name="Layer 1" xmlns="http://www.w3.org/2000/svg" viewBox="0 0 333.5 290.77"><defs><style>.cls-1{fill:#444;}.cls-2{fill:#fff;}.cls-3{fill:#ff1f26;}</style></defs><title>logo</title><rect class="cls-1" width="46" height="207.5"/><ellipse class="cls-1" cx="83.75" cy="104" rx="74.25" ry="104"/><rect class="cls-1" x="75.5" y="32.5" width="16" height="83" transform="translate(120 -75.5) rotate(90)"/><rect class="cls-1" x="71.5" y="224.5" width="16" height="83" transform="translate(308 120.5) rotate(90)"/><rect class="cls-2" x="34.5" y="50" width="23.44" height="103.75"/><ellipse class="cls-2" cx="77.17" cy="102" rx="37.83" ry="52"/><rect class="cls-2" x="91.44" y="98.86" width="8" height="42.29" transform="translate(177.94 -41.44) rotate(90)"/><rect class="cls-2" x="89.4" y="194.86" width="8" height="42.29" transform="translate(271.9 56.6) rotate(90)"/><ellipse class="cls-1" cx="241" cy="104" rx="82.5" ry="104"/><ellipse class="cls-2" cx="238" cy="102.5" rx="41.5" ry="60.5"/><rect class="cls-1" x="234.5" y="102" width="82" height="28"/><rect class="cls-2" x="251.5" y="74" width="82" height="28"/><polygon class="cls-3" points="111.33 290.77 86.97 277.87 62.24 290.04 67.33 263.55 47.75 244.44 75.25 240.97 87.88 216.98 99.79 241.34 127.17 245.62 107.04 264.14 111.33 290.77"/><polygon class="cls-3" points="243.33 290.77 218.97 277.87 194.24 290.04 199.33 263.55 179.75 244.44 207.25 240.97 219.88 216.98 231.79 241.34 259.18 245.62 239.04 264.14 243.33 290.77"/></svg>