<svg id="Layer_1" data-name="Layer 1" xmlns="http://www.w3.org/2000/svg" viewBox="0 0 336 330.57"><defs><style>.cls-1{fill:#f90808;}</style></defs><title>Unknown</title><path d="M182.6,139q0,32.7-17.7,71.1a290.22,290.22,0,0,1-35.4,58.2q-18.9,23.4-27.9,27.3a27.28,27.28,0,0,1-10.2,1.8q-13.2,0-30-8.4-15-6.9-22.5-15V58q.9-7.8,9-9.3.9-.3,15,2.1,2.7.3,17.85-6.3t26-6.6a49.82,49.82,0,0,1,25.2,6.9Q138.8,49,152.6,61q20.1,17.4,26.1,36.6Q182.6,110.5,182.6,139ZM132.8,81.1a9.7,9.7,0,0,0-4.8-.9q-15.9,0-38.1,13.8V229q20.4-11.7,34.8-57.3Q137,132.4,137,100.3,137,83.5,132.8,81.1Z" transform="translate(-38.9 -37.9)"/><path d="M374.9,182.5q-.9,12-10.5,15.3a6.53,6.53,0,0,1-4.2-1.05,8.67,8.67,0,0,0-3.9-1.35,9.92,9.92,0,0,0-3.9.9q-11.7,44.7-18.3,60-12,28.5-31.2,37.2a24.43,24.43,0,0,1-10.5,2.4q-5.4,0-26.7-7.8-8.1-2.1-25.5-8.7-17.41-8.4-27-38.7-8.72-27.6-8.7-65.7,0-49.5,13.8-88.2,15-42.3,39.6-47.4a34.15,34.15,0,0,1,4.8-.3q15,0,36.6,9.6,23.08,10.2,31.2,22.5,6.58,9.9,8.7,25.2,2.7,17.4,3.3,18.9c.6,3.4,1.39,7.5,2.4,12.3q.28,3.9-3,9.15t-6.3,6.45q-3.92,1.5-23.4-4.35t-23.4-9.15q-5.4-3.6-4.5-14.1a7.2,7.2,0,0,1,1.5-3.75,7.61,7.61,0,0,0,1.5-4q0-21.3-4.8-21.3-10.22-.3-18,34.2-7.2,32.4-7.2,70.8,0,57,15.9,65.4,4.79,2.4,13.05-16.5T296,205q-4.81-3.6-18.3-9.3-10.8-4.5-11.7-7.8-1.22-4.5,3-12.75t8.85-10.65q4.63-2.4,13-2.7,11.39,0,13.8-.6,5.08-.9,16.5-5.1,9.29-3.6,14.1-3.6a16.93,16.93,0,0,1,3.3.3q7.48,1.5,22,13.5T374.9,182.5Z" transform="translate(-38.9 -37.9)"/><polygon class="cls-1" points="131.39 330.25 106.74 317.5 82.26 330.57 86.77 303.19 66.77 283.95 94.21 279.78 106.32 254.82 118.77 279.62 146.26 283.43 126.51 302.93 131.39 330.25"/><polygon class="cls-1" points="225.39 330.25 200.74 317.5 176.26 330.57 180.77 303.19 160.77 283.95 188.21 279.78 200.32 254.82 212.77 279.62 240.26 283.43 220.51 302.93 225.39 330.25"/></svg>