<svg id="Layer_1" data-name="Layer 1" xmlns="http://www.w3.org/2000/svg" viewBox="0 0 331.5 213.46"><defs><style>.cls-1{fill:#666;stroke:#fff;stroke-miterlimit:10;stroke-width:0.25px;}</style></defs><title>logo-alternate</title><g id="name"><path class="cls-1" d="M85.29,151.76h-.4c-6.56,10-19.46,14.53-31.74,14.53-31.12,0-53-24.94-53-53.8S21.62,58.9,52.74,58.9c12.08,0,24.77,4.32,32.55,13.15V0h37.27V163H85.29ZM38.61,112.69c0,12.76,8.81,22.58,24,22.58s24-9.82,24-22.58c0-12.37-8.8-22.77-24-22.77S38.61,100.32,38.61,112.69Z" transform="translate(-0.02 0.13)"/><path class="cls-1" d="M261.17,153.13c0,42.8-22.11,60.08-60.81,60.08-24.16,0-56.51-12-59.79-38.48h41.77a12.53,12.53,0,0,0,7,7.65A25.29,25.29,0,0,0,200,184.74c20.07,0,24-12.56,24-28.86v-4.71c-9.63,9.23-19.45,13.74-33.38,13.74-30.71,0-51.8-22.38-51.8-51.44,0-29.44,21.7-54.57,53.85-54.57,12.28,0,23.55,3.92,30.92,13.94H224V62.23h37.26Zm-84-41.23c0,12.77,8.81,22.58,24,22.58s24-9.81,24-22.58c0-12.36-8.8-22.77-24-22.77s-23.95,10.41-23.95,22.77Z" transform="translate(-0.02 0.13)"/><path class="cls-1" d="M331.4,143.9c0,12.57-10.65,23-24,23s-24-10.4-24-23c0-12.76,10.65-23,24-23S331.4,131.14,331.4,143.9Z" transform="translate(-0.02 0.13)"/></g></svg>