<svg id="Layer_1" data-name="Layer 1" xmlns="http://www.w3.org/2000/svg" viewBox="0 0 400 400"><defs><style>.cls-1{fill:#e7cf44;}.cls-2{stroke:#000;stroke-miterlimit:10;stroke-width:0.25px;}</style></defs><title>logo</title><rect class="cls-1" width="400" height="400"/><path class="cls-2" d="M98.79,175h44.48c54.42,0,88.63,39.19,88.63,103.26v5c0,62.82-33.58,103.25-88.63,103.25H98.79ZM141.4,357.89c35.77,0,56.92-28,56.92-75.57v-3.11c0-48.21-18.35-75.58-56.92-75.58h-10V357.89Z"/><path class="cls-2" d="M249.63,284.5V277c0-61.89,28.92-104.5,83-104.5,22.08,0,35.76,5.6,45.4,12.13l-14.3,26.44c-6.22-3.73-16.49-9-30.17-9-33.28,0-50.69,29.23-50.69,75.88v5.6c0,47.27,15.55,77.13,50.38,77.13a53.71,53.71,0,0,0,23.32-5.6v-36.7H323V289.78h62.83v83.66c-9,6.22-28.61,15.86-50.39,15.86C278.55,389.3,249.63,349.18,249.63,284.5Z"/></svg>